<?xml version="1.0" encoding="UTF-8"?>
<svg xmlns="http://www.w3.org/2000/svg" xmlns:xlink="http://www.w3.org/1999/xlink" width="24px" height="24px"
  viewBox="0 0 24 24" version="1.1">
  <g id="surface1">
    <path style=" stroke:none;fill-rule:evenodd;fill:rgb(166, 185, 28);fill-opacity:1;"
      d="M 16.039062 0.0234375 C 16.058594 0 16.09375 -0.0078125 16.117188 0.0117188 L 17.820312 1.203125 C 17.847656 1.21875 17.851562 1.253906 17.835938 1.28125 L 15.464844 4.667969 C 16.617188 5.035156 17.402344 5.433594 17.402344 5.433594 C 17.402344 5.433594 15.480469 8.734375 12.226562 8.734375 C 8.96875 8.734375 6.652344 5.65625 6.652344 5.65625 C 6.652344 5.65625 7.472656 5.132812 8.691406 4.683594 L 6.089844 1.585938 C 6.070312 1.5625 6.074219 1.527344 6.097656 1.507812 L 7.691406 0.167969 C 7.710938 0.148438 7.746094 0.152344 7.765625 0.175781 L 11.0625 4.101562 C 11.34375 4.070312 11.628906 4.050781 11.921875 4.050781 C 12.335938 4.050781 12.753906 4.082031 13.160156 4.136719 Z M 16.683594 8.890625 C 17.554688 8.273438 18.867188 6.652344 18.867188 6.652344 C 18.867188 6.652344 22.226562 9.3125 22.226562 14.957031 C 22.226562 20.601562 16.421875 24 16.421875 24 C 16.421875 24 13.644531 21.199219 12.964844 17.644531 C 12.285156 14.09375 13.972656 10.148438 13.972656 10.148438 C 13.972656 10.148438 15.816406 9.511719 16.683594 8.890625 Z M 7.324219 8.890625 C 6.457031 8.273438 5.140625 6.652344 5.140625 6.652344 C 5.140625 6.652344 1.78125 9.3125 1.78125 14.957031 C 1.78125 20.601562 7.589844 24 7.589844 24 C 7.589844 24 10.363281 21.199219 11.042969 17.644531 C 11.726562 14.09375 10.039062 10.148438 10.039062 10.148438 C 10.039062 10.148438 8.195312 9.511719 7.324219 8.890625 Z M 7.324219 8.890625 " />
  </g>
</svg>