<?xml version="1.0" encoding="UTF-8"?>
<svg xmlns="http://www.w3.org/2000/svg" xmlns:xlink="http://www.w3.org/1999/xlink" width="24px" height="24px"
  viewBox="0 0 24 24" version="1.1">
  <g id="surface1">
    <path style=" stroke:none;fill-rule:evenodd;fill:rgb(112, 87, 70);fill-opacity:1;"
      d="M 10.753906 21.226562 C 11.207031 21.296875 11.675781 21.332031 12.152344 21.332031 C 17.214844 21.332031 21.316406 17.230469 21.316406 12.167969 C 21.316406 7.105469 17.214844 3 12.152344 3 C 11.8125 3 11.476562 3.019531 11.144531 3.054688 C 13.65625 4.957031 15.316406 8.253906 15.316406 12 C 15.316406 15.9375 13.480469 19.378906 10.753906 21.226562 Z M 11.984375 24 C 18.609375 24 23.984375 18.628906 23.984375 12 C 23.984375 5.371094 18.609375 0 11.984375 0 C 5.355469 0 -0.015625 5.371094 -0.015625 12 C -0.015625 18.628906 5.355469 24 11.984375 24 Z M 11.984375 24 " />
  </g>
</svg>