<?xml version="1.0" encoding="UTF-8"?>
<svg xmlns="http://www.w3.org/2000/svg" xmlns:xlink="http://www.w3.org/1999/xlink" width="24px" height="24px"
  viewBox="0 0 24 24" version="1.1">
  <g id="surface1">
    <path style=" stroke:none;fill-rule:evenodd;fill:rgb(111, 53, 252);fill-opacity:1;"
      d="M 13.15625 11.949219 C 13.320312 11.847656 13.457031 11.640625 13.570312 11.410156 C 15.035156 12.007812 16.0625 13.421875 16.0625 15.070312 C 16.0625 17.261719 14.246094 19.039062 12.007812 19.039062 C 11.085938 19.039062 10.238281 18.742188 9.558594 18.234375 C 9.335938 18.128906 9.152344 18.027344 9 17.945312 C 8.769531 17.816406 8.613281 17.734375 8.519531 17.746094 C 8.238281 17.785156 8.320312 18.042969 8.394531 18.277344 C 8.445312 18.433594 8.492188 18.582031 8.417969 18.644531 C 8.34375 18.707031 8.097656 18.472656 7.8125 18.199219 C 7.421875 17.828125 6.957031 17.382812 6.734375 17.519531 C 6.5625 17.625 6.730469 17.910156 6.9375 18.261719 L 6.953125 18.285156 C 7.039062 18.433594 7.140625 18.585938 7.234375 18.722656 C 7.421875 19.003906 7.574219 19.230469 7.496094 19.265625 C 7.40625 19.3125 6.769531 18.882812 6.230469 18.285156 C 6.023438 18.054688 5.824219 17.808594 5.636719 17.574219 C 5.230469 17.066406 4.890625 16.644531 4.699219 16.695312 C 4.46875 16.753906 4.644531 17.226562 4.898438 17.683594 C 5.015625 17.898438 5.15625 18.113281 5.277344 18.300781 C 5.46875 18.59375 5.613281 18.816406 5.558594 18.84375 C 5.488281 18.878906 4.871094 18.277344 4.453125 17.519531 C 4.203125 17.066406 3.992188 16.570312 3.824219 16.164062 C 3.640625 15.726562 3.503906 15.402344 3.414062 15.367188 C 3.101562 15.253906 3.101562 15.894531 3.226562 16.816406 C 3.242188 16.933594 3.265625 17.0625 3.296875 17.191406 C 4.515625 21.128906 8.257812 24 12.683594 24 C 18.097656 24 22.488281 19.707031 22.488281 14.410156 C 22.488281 9.371094 18.511719 5.238281 13.457031 4.851562 C 13.464844 4.613281 13.589844 4.144531 13.589844 4.144531 C 13.589844 4.144531 14.480469 1.984375 14.527344 1.523438 C 14.53125 1.492188 14.535156 1.460938 14.539062 1.425781 C 14.59375 0.925781 14.699219 0 13.902344 0 C 13.476562 0 13.277344 0.316406 13.050781 0.679688 C 12.964844 0.816406 12.871094 0.964844 12.761719 1.101562 C 11.972656 2.089844 10.644531 3.320312 9.890625 3.976562 C 8.296875 5.367188 6.730469 6.507812 5.820312 7.171875 C 5.40625 7.476562 5.125 7.679688 5.039062 7.765625 C 4.386719 8.402344 2.046875 12.621094 2.046875 12.621094 C 2.046875 12.621094 1.289062 13.976562 1.558594 14.253906 C 1.828125 14.527344 2.476562 14.464844 2.476562 14.464844 C 2.476562 14.464844 11.191406 12.464844 11.972656 12.304688 C 12.183594 12.265625 12.332031 12.238281 12.445312 12.222656 C 12.753906 12.167969 12.808594 12.160156 13.15625 11.949219 Z M 6.996094 9.378906 C 6.527344 9.824219 5.75 10.882812 5.75 10.882812 C 5.75 10.882812 7.195312 10.972656 7.988281 10.21875 C 8.78125 9.464844 8.601562 8.175781 8.601562 8.175781 C 8.601562 8.175781 7.464844 8.933594 6.996094 9.378906 Z M 6.996094 9.378906 " />
  </g>
</svg>