<?xml version="1.0" encoding="UTF-8"?>
<svg xmlns="http://www.w3.org/2000/svg" xmlns:xlink="http://www.w3.org/1999/xlink" width="24px" height="24px"
  viewBox="0 0 24 24" version="1.1">
  <g id="surface1">
    <path style=" stroke:none;fill-rule:evenodd;fill:rgb(247, 208, 44);fill-opacity:1;"
      d="M 7.152344 0.0273438 C 7.148438 0.015625 7.15625 0 7.171875 0 L 15.601562 0 C 15.609375 0 15.617188 0.0078125 15.621094 0.015625 L 19.492188 12.523438 C 19.496094 12.535156 19.484375 12.550781 19.472656 12.550781 L 13.859375 12.550781 C 13.851562 12.550781 13.847656 12.558594 13.851562 12.5625 L 17.070312 23.894531 C 17.074219 23.914062 17.046875 23.929688 17.03125 23.910156 L 4.523438 7.277344 C 4.515625 7.265625 4.523438 7.246094 4.542969 7.246094 L 9.632812 7.246094 C 9.640625 7.246094 9.648438 7.238281 9.644531 7.230469 Z M 7.152344 0.0273438 " />
  </g>
</svg>