<?xml version="1.0" encoding="UTF-8"?>
<svg xmlns="http://www.w3.org/2000/svg" xmlns:xlink="http://www.w3.org/1999/xlink" width="24px" height="24px"
  viewBox="0 0 24 24" version="1.1">
  <g id="surface1">
    <path style=" stroke:none;fill-rule:evenodd;fill:rgb(214, 133, 173);fill-opacity:1;"
      d="M 4.816406 19.03125 L 8.664062 17.914062 L 11.988281 23.992188 C 11.992188 24 12.003906 24 12.007812 23.992188 L 15.335938 17.914062 L 19.183594 19.03125 C 19.191406 19.03125 19.199219 19.023438 19.199219 19.015625 L 18.082031 15.242188 L 23.992188 12.007812 C 24 12.003906 24 11.992188 23.992188 11.988281 L 18.03125 8.730469 L 19.199219 4.792969 C 19.199219 4.78125 19.191406 4.773438 19.183594 4.777344 L 15.242188 5.921875 L 12.007812 0.0078125 C 12.003906 -0.00390625 11.992188 -0.00390625 11.988281 0.0078125 L 8.753906 5.921875 L 4.816406 4.777344 C 4.808594 4.773438 4.796875 4.78125 4.800781 4.792969 L 5.964844 8.730469 L 0.0078125 11.988281 C -0.00390625 11.992188 -0.00390625 12.003906 0.0078125 12.007812 L 5.917969 15.242188 L 4.800781 19.015625 C 4.796875 19.023438 4.808594 19.03125 4.816406 19.03125 Z M 7.800781 12.042969 L 10.53125 13.53125 L 12.019531 16.257812 C 12.027344 16.269531 12.035156 16.269531 12.042969 16.257812 L 13.53125 13.53125 L 16.257812 12.042969 C 16.265625 12.035156 16.265625 12.027344 16.257812 12.019531 L 13.53125 10.53125 L 12.042969 7.800781 C 12.035156 7.792969 12.027344 7.792969 12.019531 7.800781 L 10.53125 10.53125 L 7.800781 12.019531 C 7.792969 12.027344 7.792969 12.035156 7.800781 12.042969 Z M 7.800781 12.042969 " />
  </g>
</svg>