<?xml version="1.0" encoding="UTF-8"?>
<svg xmlns="http://www.w3.org/2000/svg" xmlns:xlink="http://www.w3.org/1999/xlink" width="24px" height="24px"
  viewBox="0 0 24 24" version="1.1">
  <g id="surface1">
    <path style=" stroke:none;fill-rule:evenodd;fill:rgb(194, 46, 40);fill-opacity:1;"
      d="M 4.136719 1.996094 C 4.425781 0.847656 5.464844 0 6.703125 0 C 7.628906 0 8.445312 0.476562 8.917969 1.199219 L 9.695312 1.199219 C 10.175781 0.707031 10.847656 0.398438 11.589844 0.398438 C 12.679688 0.398438 13.617188 1.058594 14.023438 2 L 14.667969 2 C 15.074219 1.746094 15.554688 1.601562 16.070312 1.601562 C 17.160156 1.601562 18.097656 2.257812 18.5 3.199219 L 20.265625 3.199219 C 20.277344 3.199219 20.292969 3.203125 20.304688 3.210938 C 20.386719 3.203125 20.46875 3.199219 20.550781 3.199219 C 22.011719 3.199219 23.195312 4.386719 23.195312 5.847656 L 23.195312 13.929688 C 23.195312 13.976562 23.195312 14.027344 23.191406 14.074219 C 23.035156 19.582031 18.082031 24 11.996094 24 C 5.8125 24 0.796875 19.433594 0.796875 13.800781 C 0.796875 11.082031 1.964844 8.609375 3.871094 6.78125 C 3.863281 9.433594 3.910156 12.171875 4.117188 12.125 C 4.667969 12 4.238281 3.789062 4.136719 1.996094 Z M 4.136719 1.996094 " />
  </g>
</svg>