<?xml version="1.0" encoding="UTF-8"?>
<svg xmlns="http://www.w3.org/2000/svg" xmlns:xlink="http://www.w3.org/1999/xlink" width="24px" height="24px"
  viewBox="0 0 24 24" version="1.1">
  <g id="surface1">
    <path style=" stroke:none;fill-rule:evenodd;fill:rgb(238, 129, 48);fill-opacity:1;"
      d="M 16.511719 18.535156 C 16.808594 17.449219 16.234375 15.222656 16.234375 15.222656 C 16.234375 15.222656 15.816406 17.035156 15.164062 17.707031 C 14.605469 18.28125 13.925781 18.675781 12.945312 18.78125 C 13.746094 18.394531 14.296875 17.582031 14.296875 16.648438 C 14.296875 15.335938 13.214844 14.269531 11.875 14.269531 C 10.539062 14.269531 9.457031 15.335938 9.457031 16.648438 C 9.457031 17.007812 9.539062 17.347656 9.683594 17.652344 C 8.847656 16.984375 8.714844 15.917969 8.714844 15.917969 C 8.714844 15.917969 7.78125 19.792969 10.351562 21.617188 C 12.925781 23.4375 17.964844 21.871094 17.964844 21.871094 C 17.964844 21.871094 10.753906 26.945312 5.410156 21.425781 C 0.808594 16.667969 4.210938 10.40625 4.210938 10.40625 C 4.210938 10.40625 4.0625 10.988281 4.0625 11.660156 C 4.0625 12.335938 4.429688 12.847656 4.429688 12.847656 C 4.429688 12.847656 5.519531 10.550781 6.367188 9.617188 C 7.171875 8.730469 8.179688 8.011719 9.046875 7.394531 C 9.71875 6.917969 10.304688 6.496094 10.65625 6.105469 C 12.589844 3.941406 11.40625 0 11.40625 0 C 11.40625 0 13.585938 1.921875 14.195312 4.40625 C 14.425781 5.351562 14.277344 6.429688 14.144531 7.394531 C 13.929688 8.957031 13.753906 10.21875 15.320312 10.136719 C 17.847656 10.003906 15.648438 6.105469 15.648438 6.105469 C 15.648438 6.105469 21.390625 9.121094 20.960938 14.398438 C 20.53125 19.671875 14.6875 20.875 14.6875 20.875 C 14.6875 20.875 16.214844 19.617188 16.511719 18.535156 Z M 16.511719 18.535156 " />
  </g>
</svg>