<?xml version="1.0" encoding="UTF-8"?>
<svg xmlns="http://www.w3.org/2000/svg" xmlns:xlink="http://www.w3.org/1999/xlink" width="24px" height="24px"
  viewBox="0 0 24 24" version="1.1">
  <g id="surface1">
    <path style=" stroke:none;fill-rule:evenodd;fill:rgb(169, 143, 243);fill-opacity:1;"
      d="M 8.378906 22.394531 C 11.894531 22.394531 14.902344 20.441406 16.144531 17.667969 C 16.160156 17.636719 11.15625 18.96875 11.316406 18.5 C 11.386719 18.289062 14.453125 17.167969 16.691406 15.859375 C 17.972656 15.109375 18.566406 13.519531 18.566406 13.519531 C 18.566406 13.519531 16.402344 14.570312 15.308594 14.835938 C 13.101562 15.375 11.164062 15.316406 11.164062 15.257812 C 11.164062 15.136719 14.386719 14.527344 18.863281 11.796875 C 20.96875 10.511719 21.542969 8.300781 21.542969 8.300781 C 21.542969 8.300781 19.226562 9.679688 17.828125 10.136719 C 14.503906 11.21875 11.476562 11.542969 11.476562 11.394531 C 11.476562 11.082031 14.140625 10.351562 16.96875 8.980469 C 18.441406 8.269531 19.710938 7.335938 21.1875 6.300781 C 23.601562 4.609375 24 1.59375 24 1.59375 C 24 1.59375 21.617188 3.128906 20.457031 3.640625 C 15.664062 5.742188 11.429688 6.847656 8.378906 7.085938 C 3.769531 7.445312 0 10.660156 0 14.835938 C 0 19.011719 3.75 22.394531 8.378906 22.394531 Z M 8.378906 22.394531 " />
  </g>
</svg>