<?xml version="1.0" encoding="UTF-8"?>
<svg xmlns="http://www.w3.org/2000/svg" xmlns:xlink="http://www.w3.org/1999/xlink" width="24px" height="24px"
  viewBox="0 0 24 24" version="1.1">
  <g id="surface1">
    <path style=" stroke:none;fill-rule:evenodd;fill:rgb(115, 87, 151);fill-opacity:1;"
      d="M 17.292969 23.917969 C 15.128906 24.027344 12.652344 24.027344 11.808594 23.917969 C 5.238281 23.050781 0 18.25 0 11.757812 C 0 5.261719 5.371094 0 12 0 C 18.628906 0 24 5.261719 24 11.757812 C 24 14.777344 22.835938 17.53125 20.929688 19.613281 C 20.410156 20.175781 21.121094 20.574219 21.84375 20.976562 C 22.554688 21.371094 23.273438 21.773438 22.855469 22.347656 C 22.394531 22.976562 19.894531 23.785156 17.292969 23.917969 Z M 10.3125 10.285156 C 10.3125 11.300781 9.472656 12.125 8.4375 12.125 C 7.402344 12.125 6.5625 11.300781 6.5625 10.285156 C 6.5625 9.605469 6.941406 9.011719 7.5 8.695312 C 7.535156 9.578125 8.261719 10.285156 9.152344 10.285156 Z M 16.125 8.695312 C 16.089844 9.578125 15.363281 10.285156 14.472656 10.285156 L 13.3125 10.285156 C 13.3125 11.300781 14.152344 12.125 15.1875 12.125 C 16.222656 12.125 17.0625 11.300781 17.0625 10.285156 C 17.0625 9.605469 16.683594 9.011719 16.125 8.695312 Z M 16.125 8.695312 " />
  </g>
</svg>