<?xml version="1.0" encoding="UTF-8"?>
<svg xmlns="http://www.w3.org/2000/svg" xmlns:xlink="http://www.w3.org/1999/xlink" width="24px" height="24px"
  viewBox="0 0 24 24" version="1.1">
  <g id="surface1">
    <path style=" stroke:none;fill-rule:evenodd;fill:rgb(122, 199, 76);fill-opacity:1;"
      d="M 4.566406 20.65625 C 4.484375 20.578125 4.402344 20.5 4.320312 20.417969 C 0.0703125 16.167969 0.0703125 9.277344 4.320312 5.023438 C 8.574219 0.773438 22.117188 0.488281 22.117188 0.488281 C 22.117188 0.488281 23.964844 16.167969 19.714844 20.417969 C 15.941406 24.195312 10.082031 24.617188 5.839844 21.683594 L 9.257812 17.492188 L 14.722656 16.3125 L 10.261719 15.867188 L 13.09375 12.980469 L 16.320312 12.273438 L 13.769531 11.519531 L 16.320312 6.917969 L 12.691406 10.988281 L 11.292969 9.007812 L 11.785156 12.273438 L 9.257812 15.121094 L 8.085938 11.519531 L 8.085938 16.3125 Z M 4.566406 20.65625 " />
  </g>
</svg>