<?xml version="1.0" encoding="UTF-8"?>
<svg xmlns="http://www.w3.org/2000/svg" xmlns:xlink="http://www.w3.org/1999/xlink" width="24px" height="24px"
  viewBox="0 0 24 24" version="1.1">
  <g id="surface1">
    <path style=" stroke:none;fill-rule:evenodd;fill:rgb(226, 191, 101);fill-opacity:1;"
      d="M 5.285156 20.613281 C 5.277344 20.613281 5.273438 20.605469 5.277344 20.601562 L 11.402344 3.289062 C 11.40625 3.285156 11.410156 3.28125 11.414062 3.28125 L 17.953125 3.28125 C 17.957031 3.28125 17.960938 3.285156 17.964844 3.289062 L 24 20.601562 C 24 20.605469 23.996094 20.613281 23.992188 20.613281 Z M 0.0078125 20.679688 C 0.00390625 20.679688 0 20.675781 0 20.667969 L 4.5625 8.488281 C 4.566406 8.484375 4.566406 8.480469 4.570312 8.480469 L 8.535156 8.480469 C 8.542969 8.480469 8.546875 8.488281 8.546875 8.492188 L 4.132812 20.675781 C 4.132812 20.679688 4.128906 20.679688 4.125 20.679688 Z M 0.0078125 20.679688 " />
  </g>
</svg>