<?xml version="1.0" encoding="UTF-8"?>
<svg xmlns="http://www.w3.org/2000/svg" xmlns:xlink="http://www.w3.org/1999/xlink" width="24px" height="24px"
  viewBox="0 0 24 24" version="1.1">
  <g id="surface1">
    <path style=" stroke:none;fill-rule:evenodd;fill:rgb(163, 62, 161);fill-opacity:1;"
      d="M 20.054688 18.441406 C 22.476562 16.503906 24 13.707031 24 10.589844 C 24 4.742188 18.628906 0 12 0 C 5.371094 0 0 4.742188 0 10.589844 C 0 13.59375 1.414062 16.300781 3.6875 18.230469 C 3.550781 18.707031 3.472656 19.222656 3.472656 19.761719 C 3.472656 22.101562 4.886719 24 6.632812 24 C 7.765625 24 8.757812 23.199219 9.316406 21.996094 C 9.871094 23.199219 10.867188 24 12 24 C 13.03125 24 13.949219 23.335938 14.527344 22.304688 C 15.101562 23.335938 16.019531 24 17.050781 24 C 18.796875 24 20.210938 22.101562 20.210938 19.761719 C 20.210938 19.300781 20.15625 18.859375 20.054688 18.441406 Z M 18.949219 10.800781 C 18.949219 13.769531 15.765625 16.179688 11.84375 16.179688 C 7.917969 16.179688 4.738281 13.769531 4.738281 10.800781 C 4.738281 7.832031 7.917969 5.425781 11.84375 5.425781 C 15.765625 5.425781 18.949219 7.832031 18.949219 10.800781 Z M 18.949219 10.800781 " />
  </g>
</svg>