<?xml version="1.0" encoding="UTF-8"?>
<svg xmlns="http://www.w3.org/2000/svg" xmlns:xlink="http://www.w3.org/1999/xlink" width="24px" height="24px"
  viewBox="0 0 24 24" version="1.1">
  <g id="surface1">
    <path style=" stroke:none;fill-rule:evenodd;fill:rgb(249, 85, 135);fill-opacity:1;"
      d="M 21.371094 19.929688 C 21.371094 19.929688 18.34375 22.359375 12.324219 21.351562 C 7.753906 20.589844 5.316406 15.554688 5.316406 12.847656 C 5.316406 6.429688 10.066406 4.96875 13.28125 4.96875 C 16.492188 4.96875 18.585938 8.097656 18.585938 10.523438 C 18.585938 12.949219 16.871094 15.070312 14.203125 15.070312 C 11.535156 15.070312 10.746094 13.195312 10.746094 11.472656 C 10.746094 9.75 12.136719 9.144531 13.410156 9.144531 C 14.679688 9.144531 15.113281 10.230469 15.113281 11.160156 C 15.113281 12.09375 14.390625 12.429688 13.789062 12.429688 C 13.183594 12.429688 13.125 12.125 12.894531 11.804688 C 12.664062 11.484375 13.1875 10.273438 12.324219 10.273438 C 11.457031 10.273438 11.296875 11.664062 11.296875 11.664062 C 11.296875 11.664062 11.613281 14.351562 14.203125 14.304688 C 16.792969 14.257812 18.023438 12.257812 17.667969 10.273438 C 17.308594 8.289062 15.382812 6.179688 12.007812 6.605469 C 8.628906 7.03125 7.25 10.445312 7.855469 14.09375 C 8.464844 17.742188 12.835938 19.855469 16.269531 19.097656 C 19.707031 18.335938 23.128906 15.847656 23.128906 9.539062 C 23.128906 3.234375 17.667969 -0.558594 11.152344 0.0664062 C 4.640625 0.691406 0.597656 6.386719 0.855469 13.226562 C 1.113281 20.070312 7.605469 23.796875 13.097656 23.988281 C 18.585938 24.179688 21.953125 21.003906 21.953125 21.003906 C 21.953125 21.003906 22.710938 20.328125 22.414062 19.800781 C 22.117188 19.273438 21.371094 19.929688 21.371094 19.929688 Z M 21.371094 19.929688 " />
  </g>
</svg>