<?xml version="1.0" encoding="UTF-8"?>
<svg xmlns="http://www.w3.org/2000/svg" xmlns:xlink="http://www.w3.org/1999/xlink" width="24px" height="24px"
  viewBox="0 0 24 24" version="1.1">
  <g id="surface1">
    <path style=" stroke:none;fill-rule:evenodd;fill:rgb(182, 161, 54);fill-opacity:1;"
      d="M 18.523438 11.472656 C 18.519531 11.472656 18.519531 11.46875 18.519531 11.464844 L 20.050781 2.539062 C 20.050781 2.535156 20.054688 2.53125 20.058594 2.53125 L 20.542969 2.53125 C 20.546875 2.53125 20.550781 2.535156 20.554688 2.539062 L 24.003906 13.460938 C 24.003906 13.460938 24.003906 13.464844 24 13.46875 L 21.457031 15.453125 C 21.453125 15.457031 21.445312 15.457031 21.445312 15.453125 Z M -0.046875 17.390625 C -0.046875 17.394531 -0.0429688 17.398438 -0.0390625 17.398438 L 5.203125 19.113281 C 5.203125 19.113281 5.207031 19.113281 5.210938 19.113281 L 16.929688 11.023438 C 16.929688 11.019531 16.933594 11.019531 16.933594 11.015625 L 18.1875 2.585938 C 18.191406 2.578125 18.1875 2.574219 18.179688 2.574219 L 7.800781 2.574219 C 7.796875 2.574219 7.796875 2.574219 7.792969 2.578125 L -0.0429688 12.035156 C -0.046875 12.035156 -0.046875 12.035156 -0.046875 12.039062 Z M 7.386719 19.550781 L 13.113281 21.425781 C 13.117188 21.429688 13.121094 21.425781 13.121094 21.425781 L 19.941406 16.535156 C 19.945312 16.53125 19.945312 16.527344 19.945312 16.523438 L 17.386719 12.71875 C 17.382812 12.714844 17.378906 12.714844 17.375 12.714844 Z M 7.386719 19.550781 " />
  </g>
</svg>