<?xml version="1.0" encoding="UTF-8"?>
<svg xmlns="http://www.w3.org/2000/svg" xmlns:xlink="http://www.w3.org/1999/xlink" width="24px" height="24px"
  viewBox="0 0 24 24" version="1.1">
  <g id="surface1">
    <path style=" stroke:none;fill-rule:evenodd;fill:rgb(183, 183, 206);fill-opacity:1;"
      d="M 0.00390625 11.929688 C 0 11.925781 0 11.917969 0.00390625 11.914062 L 6.039062 1.601562 C 6.039062 1.597656 6.046875 1.59375 6.050781 1.59375 L 18.015625 1.59375 C 18.019531 1.59375 18.027344 1.597656 18.027344 1.601562 L 23.996094 11.914062 C 24 11.917969 24 11.925781 23.996094 11.929688 L 18.027344 22.230469 C 18.027344 22.234375 18.019531 22.238281 18.015625 22.238281 L 6.050781 22.238281 C 6.046875 22.238281 6.039062 22.234375 6.039062 22.230469 Z M 17.558594 11.917969 C 17.558594 14.984375 15.070312 17.476562 12 17.476562 C 8.933594 17.476562 6.445312 14.984375 6.445312 11.917969 C 6.445312 8.847656 8.933594 6.359375 12 6.359375 C 15.070312 6.359375 17.558594 8.847656 17.558594 11.917969 Z M 17.558594 11.917969 " />
  </g>
</svg>