<?xml version="1.0" encoding="UTF-8"?>
<svg xmlns="http://www.w3.org/2000/svg" xmlns:xlink="http://www.w3.org/1999/xlink" width="24px" height="24px"
  viewBox="0 0 24 24" version="1.1">
  <g id="surface1">
    <path style=" stroke:none;fill-rule:evenodd;fill:rgb(99, 144, 240);fill-opacity:1;"
      d="M 19.789062 16.242188 C 19.789062 20.527344 16.304688 24 12.003906 24 C 7.703125 24 4.21875 20.527344 4.21875 16.242188 C 4.21875 12.078125 11.582031 0.636719 11.988281 0.0117188 C 11.996094 -0.00390625 12.011719 -0.00390625 12.019531 0.0117188 C 12.425781 0.636719 19.789062 12.078125 19.789062 16.242188 Z M 10.707031 21.511719 C 6.753906 20.648438 7.433594 16.273438 7.433594 16.273438 C 7.433594 16.273438 8.511719 18.914062 11.128906 19.769531 C 13.746094 20.625 16.910156 19.371094 16.910156 19.371094 C 16.910156 19.371094 14.65625 22.375 10.707031 21.511719 Z M 10.707031 21.511719 " />
  </g>
</svg>